<svg width="77" height="150" viewBox="0 0 77 150" fill="none" xmlns="http://www.w3.org/2000/svg">
<g filter="url(#filter0_d_169_1504)">
<path d="M12.7894 134.562C13.5007 134.082 14.4737 133.539 15.2806 133.105C15.5343 132.968 15.465 133.14 15.6304 133.057C15.9471 132.899 16.2033 132.667 16.5433 132.498C16.6567 132.443 16.6206 132.669 16.7376 132.607C17.3827 132.263 17.8501 131.89 18.4839 131.49C21.4439 129.63 24.2011 127.592 26.9772 125.38C27.8773 124.664 29.0784 123.835 29.9265 122.995C30.027 122.895 29.8663 122.841 29.8783 122.814C30.0706 122.395 30.1631 122.711 30.3965 122.556C31.3376 121.925 32.2035 121.15 32.9473 120.372C33.2603 120.043 32.7286 120.142 33.1735 119.948C33.2042 119.934 33.2281 120.127 33.33 120.054C33.5539 119.894 33.9114 119.513 34.0742 119.373C34.3885 119.104 34.4367 119.055 34.7197 118.782C35.1041 118.413 35.6332 117.999 36.0019 117.578C36.082 117.486 35.8548 117.487 35.9721 117.33C36.0895 117.174 36.461 116.817 36.6102 116.718C36.7594 116.62 36.7976 116.761 36.8399 116.759C37.1928 116.748 37.3707 116.078 37.4183 116.016C38.3034 114.891 39.2419 114.165 40.1426 113.167C40.8133 112.422 41.4657 111.583 42.0982 110.857C42.8555 109.988 43.5213 109.323 44.2107 108.448C44.2832 108.356 44.0503 108.344 44.1383 108.232C45.0799 107.028 45.9936 105.88 47.0025 104.731C47.1033 104.616 47.1202 104.872 47.2285 104.764C47.8828 104.112 49.0034 103.1 48.7247 102.233C49.109 101.731 49.5552 101.127 49.986 100.742C50.2635 100.494 50.2201 100.886 50.4009 100.473C50.4418 100.38 50.2382 100.402 50.3093 100.269C50.6083 99.7106 51.0267 99.1567 51.2931 98.5811C51.3469 98.464 51.208 98.4186 51.2056 98.3746C51.1903 98.0119 51.7432 97.7676 51.8218 97.6868C52.4157 97.0742 52.6682 96.5109 53.0668 95.8385C53.1593 95.6822 52.8869 95.7717 52.9698 95.6181C53.402 94.8215 53.8665 94.0287 54.3629 93.2915C54.4735 93.128 54.5298 93.3641 54.5899 93.2898C54.8534 92.9602 54.6269 92.7346 54.8716 92.4142C54.9228 92.3463 55.0234 92.4529 55.044 92.4464C55.3678 92.3453 55.1645 92.0023 55.1862 91.9443C55.4516 91.2119 55.9901 90.9308 56.2784 90.2332C56.3124 90.1497 56.0656 90.2541 56.1705 90.0244C56.8715 88.4851 57.642 86.9036 58.4162 85.4118C58.5362 85.1799 58.5865 85.4019 58.6078 85.3931C58.9452 85.2433 58.6964 84.9526 58.7166 84.8694C58.882 84.2213 59.3747 83.7467 59.1587 83.1786C60.3053 80.5864 60.9561 77.8489 62.0222 75.2537C62.0354 75.2203 62.1809 75.3252 62.2066 75.2584C62.5157 74.4519 62.2213 74.5442 62.0502 73.9178C62.0071 73.7608 62.4833 73.4286 62.5196 73.3968C62.6534 73.2838 62.8619 73.4841 62.8925 73.4427C63.1367 73.097 62.3195 72.9737 62.4348 72.4687C62.4397 72.4531 62.5726 72.5532 62.597 72.5141C62.6732 72.3925 62.6438 72.2482 62.7235 72.1299C62.9068 71.8596 63.3223 71.8369 63.1906 71.331C63.1729 71.2668 62.6977 71.2594 62.8127 70.808C62.8598 70.6284 63.0099 69.8184 63.081 69.5956C63.1529 69.3736 63.2721 69.5572 63.2816 69.5422C63.5901 68.9629 63.6289 69.2086 63.9737 68.9542C64.3168 68.6978 63.611 68.6633 63.5552 68.5259C63.4998 68.3887 63.7361 67.9684 63.81 67.8666C63.8842 67.7652 63.9567 67.9182 64.0044 67.825C64.3164 67.2044 63.7057 67.4847 63.6291 67.2533C63.4456 66.7095 64.0164 66.3897 64.1301 65.9266C64.1607 65.8016 64.0295 65.8894 64.0335 65.7752C64.05 65.3249 64.2459 65.0666 64.1564 64.5487C64.1421 64.4632 63.8771 64.024 64.1326 63.7849C64.1694 63.7509 64.2871 63.8709 64.3357 63.6846C64.4087 63.4065 64.4862 62.8973 64.4698 62.5871C64.4576 62.3583 64.2225 62.5987 64.313 62.3203C64.3532 62.1963 64.4579 62.4415 64.523 62.2073C64.5884 61.9744 64.6291 61.3658 64.6401 61.1333C64.6515 60.9012 64.4812 61.0173 64.4717 60.9978C64.4172 60.881 64.3671 60.4301 64.3691 60.3939C64.4417 58.8958 64.6422 57.4737 64.6742 56C64.6835 55.5703 64.6757 55.1401 64.6429 54.7082C64.6317 54.5589 64.464 54.6636 64.4605 54.6409C64.3723 54.1342 64.8398 54.5208 64.9783 54.1567C64.6338 54.222 64.6894 54.0098 64.6327 53.6476C64.6049 53.4738 64.476 53.5763 64.4614 53.5611C64.244 53.3147 64.495 53.1209 64.5458 53.0707C64.7324 52.8866 64.4856 52.7173 64.6089 52.5919C64.731 52.4658 64.9461 52.719 64.9165 52.3719C64.7851 52.2851 64.4825 52.5663 64.4091 52.3098C64.14 51.3386 64.1581 49.4817 64.0442 48.6884C63.9388 47.9026 63.8637 47.6487 63.8179 47.1859C63.728 46.3481 63.555 46.7011 63.3354 46.2172C63.112 45.7348 63.7443 45.847 63.8514 45.7447C63.9582 45.6431 63.8121 45.5941 63.8585 45.4879C63.9048 45.3817 64.0359 45.5562 64.0102 45.3383C63.9852 45.1191 63.6185 44.5997 63.4699 44.5611C63.1557 44.4773 62.9397 44.8086 62.8911 44.2338C62.8884 44.2006 63.0667 44.2618 63.0485 44.1367C62.899 43.1447 62.5957 42.1519 62.3659 41.1768C62.3344 41.0426 62.5384 41.1008 62.5218 41.0219C62.3441 40.1964 62.1691 40.5759 61.7073 40.2643C62.1465 40.2085 62.3078 39.8769 62.0759 39.2834C61.9358 38.9278 61.7847 39.0585 61.5687 38.8809C61.5038 38.8279 61.5196 38.5293 61.4187 38.5186C61.0889 38.4837 60.8907 38.8408 60.7539 38.1976C60.7482 38.1692 60.9297 38.1888 60.8994 38.095C60.7013 37.489 60.3933 37.5422 60.0712 36.9403C59.8193 36.4694 59.5604 35.5337 59.2994 34.9785C59.7355 34.7642 59.3627 34.3002 58.9556 34.2557C58.7764 33.9002 58.5489 33.5359 58.3959 33.1806C58.343 33.0584 58.508 33.0628 58.5128 33.0407C58.5889 32.6986 58.2194 32.7142 58.1646 32.6472C57.581 31.9125 57.3824 31.1385 56.6883 30.5307C56.6633 30.5091 56.3557 30.6545 56.4275 30.321C56.4328 30.2987 56.7244 30.456 56.4999 30.1032C56.2765 29.7516 55.9695 28.9979 55.4992 28.6209C55.3856 28.5289 54.9562 28.4072 54.9556 28.0516C54.9559 28.0038 55.0582 27.9788 55.068 27.9026C55.0972 27.657 54.7677 27.7863 54.8701 27.4444C54.9723 27.1027 54.8738 26.62 54.3465 26.283C54.33 26.2719 54.0324 26.3324 53.9189 26.1864C53.7379 25.9527 53.5132 25.5937 53.3123 25.3591C53.2161 25.2469 53.1493 25.4275 53.1304 25.4099C52.4163 24.7156 52.0624 24.0909 51.3842 23.2658C51.2597 23.1136 50.7108 22.8653 50.5776 22.469C50.4292 22.034 51.3206 21.7632 50.5005 21.2148C50.1671 20.9925 49.0927 21.3976 48.9668 20.531C47.9025 19.7046 47.1575 18.6681 46.0007 17.945C45.9488 17.9123 45.6154 18.0132 45.5092 17.9199C45.3513 17.7806 45.3482 17.6018 45.2371 17.4993C44.773 17.0669 44.2502 16.8005 43.7791 16.4132C43.6002 16.2668 43.7502 16.2044 43.5356 16.0304C43.3207 15.8569 43.0629 15.8942 42.8178 15.6C42.6324 15.3771 42.6282 14.9033 42.3481 14.6464C42.1174 14.9411 41.9134 14.783 41.4837 14.6002C41.4011 14.5653 41.4028 14.7257 41.3599 14.7148C41.1839 14.6727 41.117 14.4942 40.9436 14.4626C40.9016 14.4548 40.8273 14.5586 40.7889 14.5582C40.4601 14.5585 40.2552 14.0716 40.2192 13.9872C40.082 13.6654 39.8763 13.7278 39.729 13.5404C39.5819 13.3534 39.9154 13.4618 39.7199 13.2783C39.3134 12.8973 38.713 12.5368 38.2419 12.237C38.054 12.1184 38.0929 12.3432 38.0639 12.3296C37.6524 12.1248 37.3497 11.7302 36.9586 11.8921C37.1353 10.9761 36.678 11.8221 36.2036 11.3426C36.1664 11.3046 36.317 10.912 36.5197 10.9592C36.7226 11.0066 36.9173 11.2713 37.2036 11.3315C37.2706 11.3452 37.7922 11.2049 37.8487 11.2119C38.2888 11.2636 38.0127 11.8231 38.0128 11.8629C38.0239 12.3009 38.633 12.1876 38.7509 12.2282C39.2873 12.4101 39.634 12.7391 40.0724 12.9154C40.359 13.0319 40.6086 12.7103 40.8001 12.8539C41.4358 13.3334 41.3383 13.9559 42.2295 13.9851C42.4204 13.9929 42.5504 13.5381 42.8138 14.1588C42.8308 14.1981 42.9871 14.7069 43.3052 14.6915C43.3453 14.6894 43.4215 14.5849 43.461 14.6006C43.7233 14.7078 43.8075 14.8998 44.0754 15.0409C44.3433 15.1822 44.6741 15.3438 44.9169 15.5896C45.0635 15.7375 45.1201 16.09 45.1599 16.1973C45.2702 16.5023 45.6763 16.4721 45.6797 16.7405C45.6824 17.01 45.2239 17.0409 45.4872 17.4293C45.7135 17.1801 45.9625 16.938 46.1985 16.6943C46.962 17.3387 47.6363 18.0634 48.3885 18.7224C48.4821 18.8041 48.509 18.5847 48.6127 18.6691C49.0499 19.027 49.3221 19.4558 49.7797 19.8211C50.1343 20.1035 50.6242 20.3138 50.9942 20.6151C50.9277 21.0914 51.5122 21.4981 51.8387 21.8925C51.953 22.0301 51.8702 22.0923 51.9329 22.2073C52.17 22.64 52.2644 22.2446 52.3935 22.304C52.9459 22.5634 52.413 23.1198 52.8671 23.5966C52.8907 23.6214 53.4822 23.6701 53.5408 23.6987C53.9146 23.8727 53.4747 23.8396 53.6065 24.0369C53.8465 24.398 53.9651 24.6873 54.3798 24.9965C54.5009 25.086 54.924 25.1966 54.9506 25.544C54.9542 25.5895 54.8357 25.6587 54.8485 25.6872C55.0879 26.1952 55.4287 25.9416 55.737 26.0998C56.0456 26.2587 56.1082 26.8248 56.0994 26.9541C56.0801 27.2918 55.9057 26.8536 55.8797 26.8558C55.5771 26.8818 55.826 27.1336 55.9696 27.3613C55.6594 27.6432 55.9016 27.9266 56.1195 27.5964C56.1429 27.5597 55.9868 27.4157 55.9696 27.3613C56.4386 27.3029 56.7316 27.6087 56.6875 28.203C56.6658 28.4813 56.3802 28.438 56.8146 28.9204C57.0107 29.1404 57.1819 28.883 57.3945 29.0523C57.8806 29.4403 58.0858 30.2346 58.4487 30.7276C58.5808 30.907 58.5977 30.6397 58.6926 30.7599C58.9449 31.0793 59.0316 31.4449 59.2929 31.7618C59.3168 31.7905 59.4116 31.6282 59.4787 31.7359C59.9885 32.5514 60.3092 33.3339 60.7739 34.2203C60.9995 34.6479 61.4717 35.3832 61.6709 35.8448C62.0229 36.6452 62.2355 37.7186 62.5705 38.3817C62.7889 38.8157 62.9009 38.6566 63.0828 38.8079C63.436 39.1016 63.3238 39.9098 63.2987 40.0191C63.2981 40.0222 63.1156 39.6453 63.1143 39.8833C62.9942 40.0657 63.2962 40.0148 63.2987 40.0191C63.2857 40.0914 63.5315 40.8879 63.6127 41.0338C63.6582 41.1131 63.7896 41.015 63.8105 41.0574C64.3045 42.0709 64.6689 43.1381 64.8875 44.2593C64.8895 44.2794 64.7129 44.2947 64.7196 44.3412C64.8087 44.9925 65.1133 45.3491 65.3573 45.8543C65.5999 46.3575 65.644 46.791 65.4109 47.1633C65.527 47.5576 65.4993 48.161 65.4732 48.5026C65.4478 48.8457 65.79 48.8398 65.8014 48.8682C66.1543 49.7561 66.0305 50.3154 66.1002 51.274C66.134 51.734 66.2568 52.6271 66.3222 53.1213C66.3757 53.5105 66.3079 53.7548 66.3735 54.1106C66.3822 54.1588 66.5316 54.1038 66.538 54.1183C66.7342 54.5135 66.3568 54.3336 66.2937 54.4185C66.0629 54.7262 65.9411 54.9108 66.0612 55.4221C66.0847 55.5223 66.4778 55.786 66.6116 56C66.6348 56.0365 66.6502 56.0714 66.6548 56.1034C66.6936 56.386 66.5031 56.2787 66.5475 56.5739C66.551 56.5991 66.6691 56.5948 66.6622 56.7768C66.6313 57.6219 66.5383 58.5338 66.5116 59.3988C66.5074 59.517 66.7011 59.3737 66.698 59.5449C66.6838 60.3428 66.6211 61.2354 66.4715 62.0165C66.4341 62.2084 66.3132 62.0766 66.2711 62.1154C66.0163 62.3535 66.3251 62.7456 66.326 62.8068C66.3591 64.2558 65.9275 65.3044 65.8678 66.7845C65.8658 66.8642 66.1386 67.5287 65.7854 67.7515C65.7618 67.7672 65.4028 67.9836 65.5815 68.2537C65.5926 68.2707 65.7831 68.1309 65.7191 68.4183C65.655 68.706 65.6851 69.1877 65.4339 69.556C65.3545 69.6737 64.9852 69.9146 65.1644 70.3389C65.1779 70.3657 65.6314 71.0613 65.1978 71.1904C65.1265 71.211 64.7211 71.0923 64.8407 71.5818C64.8639 71.6756 64.9885 71.5399 64.9989 71.7768C65.0151 72.1405 64.806 72.5708 64.8936 73.0327C64.9096 73.1131 65.1169 73.4909 64.8461 73.6913C64.8037 73.7228 64.6845 73.615 64.6375 73.745C64.4134 74.3624 64.3391 75.0461 64.0767 75.6574C63.9839 75.8736 63.7945 75.7003 63.673 75.9177C63.5516 76.1355 63.3663 76.587 63.3977 76.8573C63.4291 77.1281 63.8539 76.9619 63.7776 77.3344C63.4407 78.9644 62.7325 80.472 62.1545 82.0086C62.0676 82.2391 62.2588 82.0904 62.1384 82.4332C61.6999 83.7015 60.9718 85.8715 60.2544 86.8346C59.6871 87.5974 59.9908 86.4633 59.63 87.0747C59.4564 87.3685 59.6945 87.8739 59.6731 87.9547C59.4701 88.7443 59.0718 89.1638 58.813 89.8482C58.7597 89.9888 58.9772 89.9289 58.93 90.0479C58.77 90.4552 58.5022 90.834 58.3317 91.2124C58.2555 91.3823 58.3877 91.4094 58.3026 91.5586C58.1001 91.9158 57.8879 92.2144 57.5978 92.5123C57.5715 92.5393 57.538 92.2484 57.3953 92.5134C57.1662 92.9396 56.7742 93.4279 56.6178 93.9825C56.5717 94.1475 56.8314 94.2958 56.4784 94.5138C56.4043 94.5595 56.1363 94.3035 56.207 94.8187C56.2191 94.9046 56.243 95.7237 55.8382 95.8909C55.7318 95.9353 55.3629 95.9912 55.3039 96.1869C55.2968 96.214 55.49 96.1996 55.4212 96.3509C55.1742 96.8869 54.8459 97.4133 54.5791 97.9564C54.5079 98.1018 54.7739 97.981 54.6631 98.1951C54.3582 98.7846 53.8906 99.4625 53.5032 99.9783C53.3587 100.171 53.331 99.9571 53.3091 99.9639C52.9539 100.07 53.1421 100.385 53.108 100.474C52.8929 101.023 52.5238 101.307 52.2663 101.77C52.1947 101.898 52.3824 101.898 52.378 101.93C52.3247 102.257 52.2148 101.914 52.0834 102.056C51.7133 102.453 51.3962 102.943 51.1012 103.406C50.9938 103.575 51.271 103.493 51.1727 103.644C50.5934 104.536 49.9396 105.42 49.2525 106.183C49.1228 106.326 49.0821 106.146 49.0326 106.159C48.6865 106.252 48.6857 106.762 48.652 106.855C48.5002 107.278 48.3009 107.336 48.0905 107.65C47.0742 109.175 45.5633 110.913 44.4093 112.189C42.8824 113.883 41.616 115.093 40.1716 116.682C40.08 116.782 40.3093 116.81 40.232 116.898C39.2147 118.042 38.1177 119.06 37.0643 120.175C36.977 120.267 37.2309 120.264 37.0947 120.416C36.8162 120.728 36.4333 121.088 36.095 121.335C35.9303 121.456 36.0209 121.159 35.8575 121.283C35.4749 121.572 35.1101 121.902 34.7617 122.269C34.6163 122.422 34.972 122.336 34.7733 122.525C33.4367 123.804 32.0884 125.058 30.5502 126.077C30.442 126.149 30.1149 125.947 29.9516 126.179C30.002 126.27 30.0807 126.36 30.1444 126.449C28.1526 128.23 25.9697 129.825 23.8288 131.418C23.7354 131.488 24.013 131.521 23.8327 131.657C22.8078 132.425 21.8253 133.21 20.6722 133.788C20.555 133.848 20.4298 133.518 20.1331 133.79C20.0798 133.839 19.6236 134.212 19.5452 134.356C19.535 134.377 19.7116 134.448 19.5621 134.557C18.7259 135.163 17.7458 135.775 16.7696 136.285C16.6124 136.367 16.6787 136.122 16.5664 136.179C15.8037 136.56 15.0671 137.169 14.2224 137.485C13.6841 137.677 13.7617 137.293 13.3253 137.209C13.2577 137.201 12.9428 137.367 12.8539 137.223C12.6153 136.872 12.5295 136.392 12.2579 136.027C12.1899 135.954 11.9214 136.215 11.9986 135.909C11.999 135.891 12.2198 135.683 12.2603 135.568C12.2843 135.492 12.109 135.394 12.1789 135.274C12.258 135.149 12.428 135.217 12.5332 135.061C12.6455 134.899 12.4704 134.777 12.7894 134.562ZM65.3375 50.047C65.2146 50.3714 65.8139 50.3433 65.6295 50.0294C65.6198 50.0143 65.3434 50.0303 65.3375 50.047ZM47.3293 18.4044C47.4558 18.8659 47.9173 18.7587 47.8409 18.418C47.7628 18.0769 47.2895 18.2635 47.3293 18.4044ZM44.0001 15.9204C44.2417 16.3701 44.8225 15.7475 44.3183 15.5738C44.2891 15.5635 43.9858 15.8941 44.0001 15.9204ZM14.4712 136.442C14.4604 136.44 14.2728 136.544 14.2575 136.562C14.247 136.79 14.6601 136.56 14.4712 136.442ZM40.5519 13.6854C40.6075 13.8613 41.0271 13.989 40.959 13.7691C40.9038 13.5915 40.4821 13.4655 40.5519 13.6854ZM64.4212 65.9527C64.4118 65.9563 64.3801 66.1306 64.4305 66.1339C64.593 66.144 64.5805 65.8931 64.4212 65.9527ZM34.5985 10.0773C35.489 10.5984 35.6824 11.5164 34.7498 10.9049C34.5802 10.7947 35.2383 10.92 35.0443 10.7402C34.6871 10.4108 34.2042 10.6491 33.8949 10.2174C33.8383 10.138 34.5479 10.0453 34.6006 10.0773C34.5999 10.0773 34.5992 10.0773 34.5985 10.0773ZM64.6473 50.3125C64.6403 50.3195 64.6627 50.5612 64.671 50.5661C64.8757 50.6743 64.8307 50.1851 64.6473 50.3125ZM62.0108 75.9219C61.9914 75.9307 61.8253 76.4669 61.8349 76.4885C62.0545 76.8563 62.3929 75.7678 62.0108 75.9219ZM59.3064 34.964C59.0145 34.8199 58.8471 34.5571 58.956 34.2569C59.0711 34.4934 59.1939 34.7256 59.3064 34.964Z" fill="white"/>
<path d="M35.2861 139.945C34.9933 139.962 34.6104 139.979 34.3212 139.978C34.2306 139.978 34.2788 139.962 34.2164 139.96C34.0946 139.956 33.9791 139.967 33.859 139.96C33.8193 139.958 33.8734 139.928 33.8317 139.925C33.6034 139.911 33.3846 139.917 33.1528 139.906C32.0116 139.848 30.8926 139.77 29.7431 139.671C29.3638 139.64 28.9138 139.523 28.5159 139.535C28.4695 139.536 28.4844 139.627 28.4747 139.634C28.3221 139.739 28.3927 139.561 28.3068 139.531C27.9657 139.411 27.5743 139.365 27.2283 139.378C27.0811 139.384 27.1983 139.598 27.068 139.474C27.059 139.465 27.1109 139.359 27.0728 139.344C26.9863 139.31 26.8128 139.316 26.7442 139.301C26.6122 139.272 26.5899 139.271 26.4629 139.259C26.2894 139.242 26.0909 139.164 25.9008 139.174C25.8602 139.177 25.8957 139.305 25.8292 139.321C25.7627 139.337 25.5959 139.314 25.5433 139.279C25.4908 139.245 25.5288 139.147 25.5219 139.123C25.4665 138.921 25.2349 139.172 25.2088 139.178C24.7364 139.255 24.3674 139.062 23.94 139.019C23.6153 138.989 23.2601 139.014 22.9523 138.977C22.5856 138.932 22.2854 138.818 21.9263 138.795C21.8884 138.793 21.907 138.981 21.8606 138.979C21.368 138.954 20.8843 138.89 20.4157 138.707C20.3688 138.688 20.4556 138.523 20.4102 138.493C20.1311 138.321 19.7091 137.907 19.4242 138.663C19.2261 138.612 18.9849 138.554 18.8263 138.374C18.724 138.258 18.8647 138.072 18.7099 138.14C18.675 138.155 18.6928 138.334 18.6423 138.344C18.4295 138.384 18.2148 138.301 18.0004 138.37C17.9568 138.384 17.9459 138.544 17.9303 138.572C17.8002 138.794 17.6909 138.391 17.6594 138.358C17.4186 138.117 17.2103 138.176 16.9597 138.141C16.9015 138.132 16.9401 138.36 16.883 138.36C16.5874 138.358 16.2884 138.304 16.0172 138.171C15.9569 138.141 16.0416 137.957 16.0142 137.933C15.893 137.828 15.8134 138.185 15.6961 138.091C15.6713 138.072 15.7093 137.91 15.7069 137.892C15.6691 137.599 15.5465 137.991 15.5255 137.998C15.2579 138.089 15.1561 137.647 14.9059 137.676C14.8759 137.679 14.912 137.898 14.8294 137.896C14.2789 137.886 13.7133 137.756 13.2006 137.513C13.1209 137.476 13.2028 137.322 13.2003 137.302C13.1578 136.98 13.0448 137.389 13.0154 137.401C12.7852 137.485 12.6334 137.108 12.4186 137.586C12.2423 137.528 12.0636 137.487 11.884 137.455L10.889 137.33L11.1989 136.354C11.393 135.837 11.5114 135.296 11.8036 134.815C11.8994 134.657 12.0138 134.506 12.1555 134.363C12.1641 134.354 12.3563 134.439 12.3727 134.421C12.5718 134.194 12.246 134.142 11.9268 133.843C11.8467 133.768 12.3469 133.785 12.3841 133.784C12.5215 133.782 12.8018 133.925 12.8304 133.918C13.057 133.861 12.0746 133.557 12.1283 133.396C12.1316 133.391 12.304 133.472 12.3264 133.464C12.3964 133.441 12.3391 133.376 12.4146 133.355C12.589 133.309 13.0731 133.432 12.8456 133.197C12.816 133.167 12.2546 133.012 12.3291 132.877C12.3592 132.823 12.4353 132.567 12.495 132.508C12.5545 132.449 12.7153 132.556 12.7247 132.554C13.0231 132.44 13.0958 132.545 13.4739 132.564C13.8504 132.582 13.0192 132.336 12.9406 132.267C12.8622 132.197 13.102 132.121 13.1803 132.109C13.2587 132.096 13.3565 132.177 13.4045 132.158C13.7191 132.037 13.0274 131.935 12.9199 131.825C12.6658 131.565 13.3139 131.644 13.421 131.519C13.45 131.485 13.3017 131.471 13.3005 131.432C13.2978 131.278 13.5135 131.258 13.3941 131.044C13.3745 131.009 13.0568 130.763 13.3493 130.769C13.3913 130.77 13.5296 130.853 13.5828 130.805C13.6625 130.734 13.7478 130.587 13.7298 130.476C13.7165 130.394 13.445 130.393 13.5507 130.331C13.5977 130.303 13.7164 130.422 13.7927 130.366C13.8688 130.311 13.9248 130.123 13.9437 130.05C13.9623 129.978 13.7652 129.956 13.7547 129.946C13.6953 129.888 13.653 129.723 13.6573 129.711C13.8433 129.101 14.3364 128.646 14.4366 128.025C14.4449 127.977 14.2482 127.946 14.2475 127.938C14.2242 127.754 14.6759 128.042 14.878 127.987C14.4961 127.878 14.5863 127.835 14.5831 127.71C14.5812 127.65 14.4262 127.631 14.413 127.622C14.2205 127.469 14.5239 127.508 14.5866 127.513C14.8177 127.531 14.5856 127.391 14.74 127.402C14.8929 127.413 15.0744 127.565 15.107 127.457C14.9843 127.383 14.6102 127.347 14.5819 127.247C14.4762 126.873 14.9451 126.393 15.0552 126.157C15.1669 125.921 15.1708 125.834 15.2655 125.707C15.4362 125.476 15.1602 125.49 15.1063 125.294C15.0533 125.097 15.6172 125.371 15.7524 125.39C15.8869 125.409 15.7643 125.341 15.8434 125.336C15.9221 125.331 15.9887 125.421 16.0361 125.363C16.083 125.305 15.9176 125.049 15.7951 124.982C15.5346 124.841 15.2154 124.826 15.3793 124.685C15.3889 124.677 15.5298 124.76 15.5586 124.727C15.7813 124.46 15.8971 124.144 16.1002 123.871C16.1282 123.834 16.2779 123.925 16.2959 123.904C16.4829 123.682 16.18 123.684 15.9291 123.445C16.317 123.608 16.5865 123.612 16.6499 123.417C16.6885 123.301 16.5108 123.264 16.4157 123.149C16.3872 123.115 16.5312 123.071 16.4564 123.029C16.2131 122.894 15.8952 122.875 16.0821 122.715C16.0907 122.708 16.222 122.783 16.2412 122.755C16.3648 122.579 16.1057 122.467 16.1513 122.247C16.1874 122.075 16.452 121.835 16.5433 121.655C16.9475 121.794 16.9121 121.584 16.6635 121.421C16.7179 121.303 16.7496 121.166 16.8285 121.061C16.8554 121.024 16.9583 121.088 16.9722 121.087C17.1889 121.071 16.9478 120.932 16.9474 120.903C16.9517 120.586 17.2206 120.415 17.1361 120.083C17.1328 120.072 16.8887 119.973 17.0976 119.961C17.1116 119.961 17.1933 120.088 17.2473 119.963C17.3024 119.838 17.5147 119.639 17.4664 119.424C17.4544 119.372 17.3046 119.201 17.4836 119.163C17.5077 119.158 17.5697 119.193 17.6124 119.188C17.7482 119.172 17.5267 119.066 17.745 119.067C17.9635 119.068 18.1467 118.981 18.0725 118.756C18.0704 118.749 17.9085 118.648 17.9306 118.592C17.9656 118.503 18.0441 118.386 18.0742 118.291C18.0886 118.246 17.9745 118.24 17.9752 118.232C18.0221 117.91 18.1889 117.724 18.3336 117.41C18.3595 117.353 18.2928 117.14 18.4306 117.057C18.5791 116.965 18.9794 117.243 18.9562 116.911C18.9429 116.776 18.4707 116.454 18.8072 116.33C18.8785 115.898 19.1188 115.556 19.1716 115.117C19.1738 115.097 19.0806 115.001 19.0977 114.958C19.1227 114.895 19.1857 114.876 19.2043 114.831C19.2832 114.643 19.3018 114.453 19.3717 114.269C19.3978 114.199 19.4345 114.238 19.4644 114.155C19.4938 114.071 19.4569 113.996 19.5218 113.891C19.5713 113.811 19.7046 113.76 19.7487 113.647C19.65 113.609 19.677 113.531 19.6985 113.383C19.7027 113.354 19.6609 113.373 19.6613 113.359C19.6629 113.302 19.7054 113.263 19.7052 113.208C19.7052 113.195 19.6757 113.184 19.6743 113.173C19.6621 113.077 19.7766 112.963 19.7941 112.942C19.8648 112.866 19.845 112.812 19.8836 112.748C19.9212 112.684 19.9048 112.793 19.9397 112.715C20.0109 112.553 20.0738 112.336 20.1284 112.165C20.15 112.097 20.1123 112.136 20.1149 112.126C20.1568 111.985 20.2216 111.849 20.213 111.76C20.3327 111.692 20.2329 111.673 20.3194 111.479C20.3262 111.464 20.3623 111.454 20.3492 111.517C20.3367 111.58 20.2978 111.669 20.2821 111.757C20.2774 111.777 20.2882 111.907 20.288 111.924C20.2803 112.057 20.1979 112.049 20.1912 112.054C20.1208 112.112 20.1337 112.27 20.1294 112.31C20.1018 112.487 20.0474 112.627 20.0254 112.775C20.0112 112.873 20.0906 112.909 20.0713 112.982C20.0098 113.228 19.847 113.267 19.9103 113.538C19.9245 113.597 20.0525 113.586 19.9206 113.735C19.9132 113.744 19.7918 113.847 19.8303 113.942C19.8353 113.954 19.8727 113.966 19.873 113.98C19.8745 114.072 19.8311 114.119 19.825 114.217C19.8191 114.315 19.819 114.435 19.7812 114.536C19.7589 114.598 19.6573 114.652 19.6288 114.676C19.5472 114.742 19.6239 114.866 19.5357 114.895C19.4449 114.923 19.3608 114.781 19.2684 114.903C19.3922 114.95 19.5179 115.004 19.6429 115.055C19.5689 115.364 19.4521 115.653 19.3832 115.965C19.375 116.003 19.465 115.991 19.4588 116.033C19.4331 116.212 19.3377 116.344 19.32 116.533C19.3066 116.679 19.3684 116.865 19.3626 117.02C19.1439 117.044 19.1591 117.283 19.1036 117.434C19.0839 117.487 19.0279 117.465 18.9996 117.497C18.8932 117.622 19.1015 117.616 19.1222 117.667C19.2135 117.884 18.7682 117.753 18.7226 117.959C18.7192 117.97 18.9302 118.183 18.9422 118.207C19.0153 118.356 18.8514 118.197 18.815 118.264C18.7484 118.385 18.6623 118.456 18.6984 118.636C18.7087 118.688 18.8468 118.852 18.6973 118.897C18.6777 118.903 18.5912 118.868 18.5837 118.875C18.4527 119.014 18.7314 119.111 18.8054 119.24C18.88 119.369 18.6468 119.453 18.5803 119.464C18.41 119.493 18.5318 119.382 18.5182 119.373C18.3576 119.265 18.3585 119.383 18.3211 119.46C18.0304 119.377 18.0128 119.496 18.2833 119.54C18.3128 119.545 18.3034 119.472 18.3211 119.46C18.5829 119.625 18.5934 119.767 18.2845 119.817C18.1392 119.84 18.0073 119.729 18.0045 119.945C18.0034 120.043 18.2218 120.077 18.2577 120.176C18.3416 120.401 18.0801 120.572 18.06 120.77C18.0534 120.842 18.1918 120.816 18.1917 120.866C18.1928 121.001 18.0723 121.08 18.087 121.22C18.0886 121.232 18.2254 121.248 18.2173 121.287C18.159 121.586 18.0082 121.814 17.9252 122.119C17.885 122.266 17.8935 122.556 17.8382 122.704C17.744 122.961 17.4426 123.216 17.4317 123.459C17.4248 123.617 17.5835 123.635 17.6691 123.732C17.8369 123.92 17.4222 124.018 17.357 124.028C17.3548 124.028 17.3538 123.89 17.2568 123.931C17.0825 123.917 17.3566 124.026 17.357 124.028C17.3158 124.035 17.2104 124.277 17.226 124.337C17.2347 124.369 17.3861 124.403 17.388 124.419C17.4284 124.802 17.3796 125.156 17.2147 125.475C17.21 125.48 17.0403 125.414 17.0312 125.427C16.8988 125.6 17.075 125.797 17.1586 126.004C17.2417 126.21 17.1656 126.327 16.8327 126.322C16.8368 126.459 16.651 126.591 16.5381 126.665C16.4252 126.739 16.7737 126.87 16.7783 126.881C16.924 127.235 16.6768 127.33 16.5614 127.609C16.5061 127.741 16.4805 128.032 16.478 128.194C16.4768 128.323 16.37 128.365 16.3941 128.492C16.3973 128.509 16.5661 128.549 16.5711 128.555C16.7341 128.742 16.3476 128.55 16.2683 128.551C15.9801 128.555 15.8225 128.565 15.9001 128.76C15.9175 128.805 16.4731 129.103 16.4894 129.18C16.5089 129.28 16.3071 129.178 16.3326 129.283C16.3346 129.292 16.4655 129.334 16.4441 129.387C16.3466 129.633 16.1894 129.885 16.1252 130.153C16.116 130.19 16.34 130.213 16.3303 130.267C16.2846 130.52 16.1992 130.786 16.0288 130.991C15.9862 131.041 15.8475 130.955 15.7993 130.953C15.5068 130.941 15.8645 131.181 15.8667 131.202C15.9258 131.7 15.4674 131.914 15.5019 132.413C15.5043 132.441 15.8753 132.768 15.4828 132.729C15.4567 132.727 15.0552 132.684 15.2898 132.841C15.3045 132.851 15.514 132.864 15.4667 132.947C15.4193 133.029 15.5047 133.215 15.2529 133.266C15.1736 133.283 14.7676 133.249 15.0318 133.464C15.0502 133.478 15.6752 133.882 15.1851 133.79C15.1045 133.774 14.6103 133.599 14.8216 133.821C14.8627 133.863 14.989 133.852 15.0363 133.945C15.1095 134.086 14.9311 134.182 15.1116 134.386C15.1437 134.422 15.4517 134.631 15.1695 134.623C15.1253 134.622 14.966 134.543 14.9341 134.578C14.7818 134.743 14.8273 134.984 14.6472 135.143C14.5837 135.199 14.3253 135.074 14.229 135.123C14.1327 135.172 14.0147 135.295 14.113 135.412C14.2114 135.529 14.6695 135.589 14.6663 135.714C14.6658 135.73 14.6651 135.746 14.6639 135.762C14.6273 136.284 14.2277 136.681 14.0283 137.148C13.9977 137.22 14.1721 137.21 14.1379 137.319C14.1371 137.321 14.1363 137.324 14.1355 137.327L12.3092 134.391C12.7282 134.439 13.4584 134.406 13.7699 134.798C14.0212 135.114 13.6293 135.262 13.8349 135.405C13.9342 135.474 14.1206 134.979 14.1485 134.967C14.4222 134.844 14.5652 135.099 14.8006 135.066C14.8493 135.06 14.8321 134.846 14.8732 134.843C15.0136 134.83 15.1433 134.946 15.275 134.951C15.3342 134.953 15.3452 134.795 15.3969 134.816C15.521 134.866 15.6249 134.951 15.7293 135.118C15.7388 135.133 15.6354 135.313 15.729 135.336C15.8805 135.373 16.0509 135.548 16.2474 135.431C16.3058 135.396 16.3565 135.045 16.4351 135.307C16.4516 135.362 16.3633 135.777 16.5445 135.437C16.5749 135.379 16.862 134.932 16.9262 135.265C16.9432 135.353 16.9685 135.706 17.0387 135.664C17.0484 135.657 17.0401 135.465 17.0946 135.456C17.2863 135.428 17.4757 135.483 17.6718 135.46C17.7242 135.454 17.6757 135.25 17.753 135.247C17.9654 135.239 18.2155 135.337 18.4086 135.434C18.4797 135.47 18.4071 135.614 18.4101 135.632C18.4591 135.921 18.5615 135.563 18.5933 135.548C18.7901 135.455 18.9027 135.653 19.074 135.64C19.1212 135.637 19.1128 135.458 19.124 135.445C19.2388 135.314 19.1259 135.609 19.1807 135.655C19.334 135.784 19.5219 135.806 19.6934 135.818C19.7565 135.823 19.7141 135.612 19.7704 135.619C20.1036 135.653 20.4421 135.745 20.7481 135.917C20.8057 135.95 20.7475 136.087 20.7555 136.123C20.8101 136.372 20.9811 136.082 21.0144 136.059C21.1663 135.951 21.2002 136.089 21.3209 136.09C21.9102 136.096 22.6052 136.338 23.139 136.506C23.8342 136.727 24.3645 136.964 25.0397 137.087C25.0825 137.095 25.0611 136.93 25.0983 136.936C25.5771 137.013 26.0353 137.185 26.5151 137.263C26.5544 137.27 26.5167 137.124 26.5804 137.131C26.711 137.145 26.8718 137.196 26.9954 137.271C27.0558 137.307 26.956 137.394 27.0172 137.427C27.1595 137.505 27.3171 137.553 27.4718 137.572C27.5377 137.58 27.4574 137.431 27.5415 137.452C28.1153 137.59 28.6774 137.736 29.2366 138.024C29.2748 138.044 29.2812 138.258 29.3711 138.239C29.3853 138.184 29.3942 138.118 29.4053 138.059C30.2414 138.253 31.0553 138.545 31.8881 138.781C31.9232 138.791 31.8721 138.705 31.94 138.725C32.3329 138.84 32.7153 138.946 33.1103 139.114C33.1495 139.13 33.1172 139.21 33.237 139.228C33.2581 139.231 33.4373 139.268 33.4853 139.265C33.4919 139.264 33.4644 139.22 33.5216 139.236C33.8537 139.328 34.1994 139.441 34.5288 139.55C34.5819 139.567 34.5222 139.571 34.5601 139.583C34.8295 139.665 35.125 139.736 35.3827 139.813C35.5554 139.862 35.49 139.855 35.5819 139.88C35.595 139.883 35.7032 139.905 35.7087 139.907C35.7229 139.911 35.6692 139.909 35.6905 139.915C35.694 139.916 35.7832 139.92 35.7832 139.92C35.7832 139.92 35.7754 139.919 35.7554 139.919C35.7493 139.919 35.6415 139.917 35.6147 139.919C35.5961 139.92 35.6291 139.922 35.5911 139.924C35.5529 139.926 35.5118 139.924 35.4487 139.927C35.3855 139.932 35.4122 139.938 35.2861 139.945ZM16.0279 126.997C15.8276 127.034 16.4526 127.256 16.3321 127.105C16.3255 127.097 16.0378 126.995 16.0279 126.997ZM19.2612 115.588C19.1133 115.674 19.2578 115.814 19.3691 115.756C19.4774 115.696 19.3046 115.561 19.2612 115.588ZM19.553 114.286C19.4417 114.407 19.7183 114.523 19.7001 114.348C19.6991 114.338 19.5593 114.279 19.553 114.286ZM35.1504 139.801C35.1516 139.801 35.2295 139.816 35.2314 139.816C35.2742 139.815 35.1189 139.782 35.1504 139.801ZM19.8759 113.005C19.8371 113.042 19.8262 113.18 19.8753 113.135C19.9137 113.098 19.9226 112.96 19.8759 113.005ZM13.7618 131.627C13.7509 131.625 13.7238 131.676 13.7828 131.695C13.9728 131.753 13.9441 131.661 13.7618 131.627ZM20.5354 110.865C20.4437 111.183 20.3309 111.357 20.4638 111.022C20.4865 110.961 20.4235 111.157 20.4542 111.079C20.5056 110.936 20.5329 110.839 20.5881 110.694C20.5959 110.667 20.5392 110.847 20.5353 110.866C20.5353 110.866 20.5354 110.866 20.5354 110.865ZM15.2568 126.801C15.2478 126.8 15.2152 126.872 15.2229 126.877C15.4097 126.983 15.4746 126.838 15.2568 126.801ZM12.2833 134.627C12.2619 134.625 12.1858 134.792 12.2024 134.803C12.5409 135.016 12.6958 134.679 12.2833 134.627ZM16.5551 121.656C16.4245 121.522 16.4433 121.42 16.6631 121.421C16.6241 121.498 16.5937 121.578 16.5551 121.656Z" fill="white"/>
</g>
<defs>
<filter id="filter0_d_169_1504" x="0.88916" y="0.0712891" width="75.8091" height="149.907" filterUnits="userSpaceOnUse" color-interpolation-filters="sRGB">
<feFlood flood-opacity="0" result="BackgroundImageFix"/>
<feColorMatrix in="SourceAlpha" type="matrix" values="0 0 0 0 0 0 0 0 0 0 0 0 0 0 0 0 0 0 127 0" result="hardAlpha"/>
<feOffset/>
<feGaussianBlur stdDeviation="5"/>
<feComposite in2="hardAlpha" operator="out"/>
<feColorMatrix type="matrix" values="0 0 0 0 1 0 0 0 0 0.911111 0 0 0 0 0 0 0 0 1 0"/>
<feBlend mode="normal" in2="BackgroundImageFix" result="effect1_dropShadow_169_1504"/>
<feBlend mode="normal" in="SourceGraphic" in2="effect1_dropShadow_169_1504" result="shape"/>
</filter>
</defs>
</svg>
