<svg width="69" height="96" viewBox="0 0 69 96" fill="none" xmlns="http://www.w3.org/2000/svg">
<g filter="url(#filter0_d_2006_132)">
<path d="M36.2094 81.6006C36.6179 81.3002 37.1956 80.9882 37.6537 80.7516C37.7958 80.6784 37.793 80.8112 37.8947 80.7633C38.095 80.6677 38.2245 80.5045 38.4228 80.412C38.4893 80.3814 38.5227 80.5685 38.5904 80.5329C38.9654 80.3326 39.2371 80.0508 39.5754 79.8008C41.2484 78.5606 42.6662 77.0191 43.9345 75.285C44.349 74.721 44.9413 74.0556 45.2428 73.3855C45.2782 73.3068 45.1246 73.2789 45.1221 73.2588C45.085 72.9451 45.3029 73.1646 45.4193 73.0357C45.8754 72.5318 46.2252 71.8709 46.4473 71.2607C46.5413 71.0005 46.1603 71.1265 46.4234 70.9483C46.4414 70.9357 46.555 71.0635 46.6012 71.0028C46.7058 70.8652 46.8118 70.558 46.8761 70.4405C47.0012 70.2137 47.0156 70.1755 47.1097 69.9554C47.2382 69.6574 47.4614 69.3085 47.5514 68.972C47.5706 68.8989 47.3854 68.9347 47.4023 68.8133C47.4193 68.6923 47.5423 68.3985 47.6145 68.309C47.6868 68.22 47.7899 68.3059 47.8236 68.2976C48.1089 68.2265 47.9089 67.7721 47.9161 67.7238C48.0614 66.8555 48.4606 66.2032 48.676 65.4197C48.8406 64.8178 48.9371 64.1684 49.078 63.5893C49.2428 62.9148 49.4507 62.331 49.5577 61.6669C49.5693 61.5959 49.3686 61.6448 49.3823 61.5582C49.529 60.6287 49.688 59.7163 49.9294 58.8142C49.9539 58.723 50.1033 58.8633 50.1375 58.7731C50.3458 58.2158 50.7638 57.3422 50.0752 56.9329C50.0961 56.8054 50.1175 56.6683 50.1428 56.5291C50.1942 56.2475 50.2602 55.9619 50.3723 55.735C50.4798 55.5166 50.6467 55.7455 50.5862 55.4648C50.5726 55.4017 50.4103 55.4733 50.4018 55.3797C50.3659 54.986 50.4346 54.5644 50.363 54.1816C50.3481 54.1038 50.2059 54.1214 50.181 54.099C49.9795 53.9077 50.3254 53.6005 50.3507 53.5319C50.5405 53.0131 50.4645 52.6338 50.4579 52.1566C50.4562 52.0458 50.2694 52.1813 50.2609 52.0754C50.2195 51.5336 50.2071 50.9403 50.2529 50.3959C50.2635 50.2739 50.433 50.3732 50.4463 50.3142C50.5023 50.0531 50.1927 50.0212 50.2378 49.774C50.2468 49.7218 50.3875 49.7384 50.4018 49.7277C50.6271 49.5598 50.2775 49.464 50.2665 49.4279C50.1177 48.9592 50.4337 48.6102 50.3239 48.1531C50.3103 48.0988 50.1528 48.2458 50.1252 48.0922C49.9421 47.0803 49.7939 45.9762 49.7065 44.951C49.6923 44.7902 49.846 44.8725 49.8597 44.8593C50.0704 44.6398 49.714 44.611 49.6895 44.5631C49.5048 44.1812 49.6841 43.7336 49.2199 43.568C48.9028 41.8448 48.1154 40.2832 47.7598 38.5552C47.7548 38.5331 47.9244 38.5029 47.9137 38.459C47.7841 37.9303 47.5861 38.1291 47.1515 37.9443C47.0426 37.8986 47.2769 37.4929 47.2916 37.4587C47.3481 37.3355 47.612 37.3101 47.6176 37.2751C47.655 36.9871 46.9296 37.3797 46.7882 37.0921C46.785 37.0825 46.9398 37.0534 46.9414 37.0224C46.9465 36.9258 46.8556 36.8783 46.865 36.7807C46.8878 36.5573 47.2134 36.3126 46.8715 36.16C46.8275 36.1414 46.4392 36.4063 46.3242 36.1414C46.2793 36.035 46.0298 35.5921 45.9861 35.4536C45.9432 35.3146 46.1223 35.3263 46.1231 35.3143C46.1078 34.8805 46.2512 34.9674 46.4103 34.6511C46.5665 34.3334 45.9869 34.7319 45.8796 34.7029C45.7726 34.6737 45.77 34.3458 45.7826 34.2562C45.7957 34.1667 45.9228 34.1926 45.9185 34.1224C45.8851 33.6576 45.5269 34.147 45.3617 34.0893C44.9719 33.9569 45.2819 33.4733 45.1657 33.1977C45.1344 33.1236 45.0698 33.242 45.0223 33.1889C44.8356 32.9782 44.8779 32.747 44.5769 32.5659C44.5275 32.5357 44.1261 32.5008 44.2207 32.2349C44.2345 32.1967 44.3793 32.178 44.3352 32.0636C44.2697 31.8924 44.1071 31.6135 43.9599 31.4837C43.8512 31.3881 43.773 31.644 43.7228 31.4618C43.7003 31.3807 43.8875 31.4256 43.8365 31.2788C43.7861 31.1322 43.5555 30.8311 43.4649 30.719C43.3745 30.607 43.293 30.7677 43.2773 30.765C43.1853 30.7466 42.9566 30.5768 42.9418 30.5578C42.1818 29.6083 41.6575 28.5672 40.7823 27.7456C40.7139 27.6812 40.6304 27.8428 40.6187 27.8342C40.3493 27.6478 40.8542 27.5251 40.8121 27.2564C40.5807 27.5165 40.5366 27.3763 40.3535 27.238C40.2651 27.1717 40.2086 27.3071 40.1918 27.3093C39.9334 27.3331 40.0464 27.0709 40.0649 27.0124C40.1334 26.7978 39.884 26.8768 39.9282 26.7325C39.9713 26.5884 40.2286 26.5731 40.0741 26.4185C39.9429 26.4618 39.8239 26.8035 39.6714 26.723C39.0994 26.4188 38.4466 25.4372 38.0934 25.0801C37.7444 24.7232 37.6084 24.6337 37.4211 24.407C37.0807 23.9989 37.0662 24.3068 36.7493 24.1777C36.4313 24.0494 36.9356 23.7028 36.9827 23.5756C37.03 23.4487 36.9064 23.5153 36.9076 23.4246C36.9088 23.334 37.0603 23.3491 36.9734 23.241C36.8863 23.1323 36.4555 23.0673 36.3339 23.1397C36.0762 23.2925 36.0159 23.6254 35.8079 23.3201C35.796 23.3024 35.9459 23.224 35.8952 23.1622C35.4887 22.6751 34.9834 22.2682 34.5494 21.8066C34.4899 21.7429 34.6556 21.6513 34.622 21.6126C34.2707 21.2098 34.2443 21.5555 33.8234 21.647C34.131 21.3381 34.1614 21.0307 33.8402 20.7948C33.6471 20.6533 33.5703 20.8304 33.3678 20.8488C33.307 20.8546 33.2445 20.6515 33.1683 20.7063C32.919 20.8851 32.8615 21.2403 32.6043 20.9027C32.5932 20.8875 32.7304 20.7898 32.6855 20.7468C32.3943 20.4682 32.1834 20.6908 31.8092 20.4821C31.5167 20.319 31.1182 19.8358 30.811 19.6045C31.0797 19.2003 30.7113 19.0974 30.4093 19.3032C30.2058 19.1593 29.9682 19.0347 29.786 18.8697C29.7233 18.8131 29.8429 18.7214 29.8418 18.703C29.8277 18.4158 29.5659 18.6382 29.5134 18.6215C28.95 18.4282 28.6635 17.9766 28.0598 17.9125C28.0382 17.9103 27.8454 18.1883 27.8363 17.9012C27.836 17.8816 28.0716 17.8377 27.8486 17.6994C27.6261 17.5613 27.2781 17.1647 26.8836 17.1316C26.788 17.1232 26.4651 17.2615 26.4067 16.9899C26.3991 16.9531 26.467 16.8796 26.4613 16.8159C26.4415 16.6122 26.2306 16.8865 26.2471 16.5693C26.2637 16.2522 26.1164 15.9326 25.696 15.9454C25.6828 15.9452 25.484 16.1476 25.3825 16.0924C25.2203 16.004 25.0098 15.8382 24.8357 15.756C24.7523 15.7167 24.7325 15.8934 24.7168 15.8892C24.1155 15.704 23.7796 15.3821 23.2005 15.0501C23.0946 14.9889 22.6825 15.0556 22.5375 14.7956C22.3777 14.5107 22.9516 13.8609 22.3185 13.8034C22.0617 13.7795 21.3808 14.6255 21.1882 13.9629C20.3549 13.7686 19.7358 13.2335 18.8724 13.1229C18.8336 13.1178 18.6217 13.3509 18.5396 13.3173C18.4176 13.2666 18.3951 13.1141 18.3092 13.0742C17.9496 12.9035 17.5749 12.8979 17.2183 12.7596C17.0825 12.7074 17.1752 12.5897 17.0129 12.5279C16.8505 12.4663 16.6838 12.6069 16.489 12.4503C16.3422 12.3316 16.2878 11.9168 16.0764 11.8049C15.9567 12.1593 15.8072 12.1044 15.505 12.116C15.4464 12.1183 15.4656 12.2601 15.436 12.2676C15.3149 12.3011 15.2517 12.1696 15.1343 12.2109C15.1058 12.2207 15.0684 12.3428 15.0432 12.3578C14.8275 12.4899 14.6407 12.1368 14.6081 12.0755C14.4838 11.8423 14.3558 11.9787 14.2409 11.8688C14.126 11.759 14.3533 11.7255 14.2074 11.6377C13.9071 11.4563 13.472 11.3606 13.1358 11.2678C13.0014 11.2315 13.0508 11.4203 13.0306 11.4189C12.7425 11.3892 12.5057 11.1436 12.272 11.4359C12.2871 10.5363 12.09 11.4784 11.7301 11.2129C11.7019 11.1917 11.7556 10.7779 11.892 10.7473C12.03 10.7173 12.1803 10.8865 12.3695 10.835C12.4138 10.8227 12.7343 10.5012 12.7716 10.4863C13.0609 10.3688 12.9432 10.9794 12.9474 11.0155C13.0015 11.4085 13.3833 11.0749 13.4648 11.0666C13.8367 11.0274 14.0949 11.1884 14.3974 11.1746C14.5953 11.1665 14.724 10.7808 14.8645 10.8337C15.3325 11.0109 15.3373 11.6036 15.9276 11.2692C16.0533 11.1982 16.0891 10.744 16.3291 11.1839C16.3444 11.2117 16.5023 11.5958 16.7102 11.4502C16.7364 11.4318 16.7752 11.3083 16.8029 11.3057C16.9881 11.2911 17.0656 11.4245 17.2594 11.436C17.4528 11.4474 17.6931 11.4497 17.8811 11.5596C17.9942 11.6256 18.0715 11.907 18.11 11.9827C18.2175 12.1995 18.4845 11.9975 18.5175 12.2275C18.5502 12.4586 18.2478 12.685 18.4681 12.9049C18.5905 12.5916 18.7289 12.2745 18.8585 11.9617C19.4461 12.1837 19.9823 12.4995 20.5702 12.7121C20.6434 12.7383 20.6349 12.541 20.7152 12.5648C21.0538 12.6662 21.294 12.9007 21.651 12.991C21.9262 13.0597 22.2856 13.0018 22.5777 13.0734C22.594 13.498 23.0477 13.5509 23.3266 13.7127C23.4241 13.7691 23.376 13.8602 23.4342 13.9228C23.6552 14.1571 23.6669 13.7901 23.7634 13.7747C24.1786 13.7114 23.8877 14.4242 24.2691 14.5796C24.2889 14.5878 24.7054 14.3296 24.7503 14.3226C25.0347 14.2725 24.7247 14.4683 24.8449 14.5587C25.0642 14.724 25.1902 14.8931 25.524 14.9223C25.6215 14.9302 25.9326 14.7982 26.0043 15.055C26.0138 15.0886 25.9417 15.2042 25.955 15.2197C26.2003 15.4904 26.3997 15.1144 26.6405 15.0748C26.8816 15.0355 27.0169 15.4369 27.032 15.5405C27.0735 15.8094 26.8793 15.5666 26.8616 15.5818C26.653 15.7622 26.8687 15.824 27.0072 15.9211C26.8349 16.3023 27.0515 16.3882 27.1507 16.02C27.1612 15.9796 27.0281 15.9535 27.0072 15.9211C27.3269 15.6259 27.5826 15.7013 27.6517 16.1735C27.6835 16.3949 27.4738 16.5185 27.8638 16.6439C28.0407 16.7014 28.1171 16.4152 28.2973 16.425C28.7097 16.4482 28.9989 16.92 29.3488 17.0743C29.4764 17.1306 29.4386 16.9266 29.5287 16.9605C29.7683 17.0505 29.8998 17.2652 30.1483 17.3432C30.171 17.3501 30.2073 17.1798 30.2762 17.2186C30.8012 17.5111 31.1885 17.8747 31.7132 18.2134C31.9667 18.3766 32.4696 18.5967 32.7198 18.7866C33.1548 19.1137 33.5658 19.6898 33.9754 19.9109C34.2427 20.056 34.2849 19.8839 34.4561 19.8688C34.7879 19.8392 34.915 20.4177 34.9257 20.5014C34.926 20.5039 34.6941 20.3807 34.7551 20.5311C34.7147 20.7206 34.9228 20.5002 34.9257 20.5014C34.9343 20.5556 35.3264 20.8972 35.4271 20.9352C35.4821 20.9555 35.552 20.8124 35.5789 20.8254C36.2177 21.1377 36.792 21.5438 37.291 22.0526C37.2986 22.063 37.1726 22.1855 37.1917 22.2082C37.4561 22.5291 37.793 22.5352 38.1328 22.6609C38.4722 22.7866 38.6474 22.9986 38.5967 23.3554C38.8123 23.4969 38.9939 23.8414 39.093 24.0428C39.1922 24.2441 39.4452 24.0156 39.4634 24.0233C40.0334 24.2624 40.1423 24.637 40.5471 25.0807C40.7396 25.2922 41.1717 25.6617 41.4124 25.8606C41.6034 26.0171 41.6466 26.1791 41.8378 26.3094C41.8636 26.3271 41.9534 26.2013 41.964 26.2042C42.2691 26.2664 41.9146 26.4289 41.9014 26.5119C41.8525 26.8136 41.8353 26.9837 42.1337 27.1461C42.2021 27.1833 42.744 26.9901 42.8581 27.0726C43.005 27.1798 42.8172 27.2553 42.9739 27.3646C42.9871 27.3741 43.074 27.2942 43.1452 27.3844C43.4767 27.8021 43.796 28.2923 44.1503 28.7165C44.1984 28.7748 44.2839 28.5822 44.356 28.6649C44.694 29.0531 45.033 29.5066 45.2604 29.9624C45.3158 30.0749 45.1645 30.0902 45.149 30.1348C45.0564 30.4055 45.4681 30.3918 45.4961 30.4197C46.1641 31.07 46.3031 31.8283 46.9236 32.5356C46.9577 32.5728 47.4777 32.7152 47.3002 33.0293C47.2889 33.0508 47.1029 33.364 47.3696 33.3824C47.3863 33.3836 47.4731 33.2058 47.5551 33.3768C47.6367 33.5471 47.887 33.7571 47.856 34.0712C47.8468 34.1712 47.6612 34.4942 48.002 34.5835C48.0248 34.5872 48.7147 34.6457 48.4264 34.954C48.3787 35.0044 47.9959 35.1813 48.3222 35.3377C48.3851 35.3677 48.4217 35.2342 48.5418 35.3376C48.7263 35.4961 48.7619 35.8154 49.0522 35.9792C49.1032 36.0073 49.452 36.068 49.3279 36.3122C49.3084 36.3503 49.1602 36.3669 49.1836 36.4523C49.2937 36.8581 49.5605 37.2144 49.6406 37.641C49.6689 37.7918 49.4298 37.8126 49.435 37.9788C49.4402 38.1444 49.5051 38.4501 49.6621 38.5594C49.8195 38.6692 50.0888 38.3679 50.2074 38.5832C50.7239 39.5264 50.8767 40.5926 51.1591 41.6137C51.2009 41.7658 51.287 41.6024 51.3569 41.8251C51.6182 42.6347 52.1029 44.0538 51.9806 44.8335C51.8854 45.4544 51.5694 44.7665 51.5725 45.222C51.5737 45.4401 52.0324 45.589 52.0554 45.6389C52.2843 46.1188 52.1622 46.5132 52.2898 46.956C52.3161 47.0478 52.4709 46.9296 52.4913 47.0084C52.5628 47.2776 52.5283 47.5775 52.5769 47.8393C52.599 47.9568 52.7257 47.9182 52.7296 48.0291C52.7402 48.294 52.7128 48.5336 52.6186 48.8033C52.61 48.8277 52.4317 48.688 52.4463 48.8825C52.4708 49.2029 52.3852 49.5866 52.5375 49.9351C52.583 50.0379 52.8815 50.0203 52.6921 50.2644C52.6523 50.3158 52.291 50.278 52.6174 50.5245C52.672 50.5644 53.1157 50.9953 52.8562 51.2326C52.7881 51.2951 52.5015 51.4569 52.5523 51.5844C52.5603 51.6015 52.718 51.5261 52.7375 51.6315C52.8031 51.9998 52.7948 52.3907 52.8481 52.7758C52.8625 52.8788 53.0274 52.7237 53.0436 52.8779C53.0884 53.301 53.0402 53.841 52.9768 54.2528C52.9532 54.4028 52.8187 54.2949 52.8034 54.3054C52.5553 54.4734 52.8797 54.5875 52.8968 54.6472C52.9981 55.0164 52.8305 55.2889 52.8517 55.6298C52.857 55.7241 53.0172 55.667 53.0301 55.6864C53.1545 55.889 52.8826 55.7272 52.844 55.8479C52.753 56.1294 52.7266 56.443 52.7139 56.7439C52.7114 56.8035 52.7096 56.8624 52.7079 56.9203C52.7044 57.0476 52.8978 56.9209 52.8925 57.0352C52.8642 57.7131 52.775 58.3932 52.5945 59.0386C52.5603 59.1586 52.4311 59.0643 52.3962 59.0859C52.1529 59.2328 52.4219 59.5254 52.4427 59.5881C52.5386 59.8691 52.4005 59.9636 52.389 60.2047C52.3382 61.3748 51.9944 62.8031 51.7036 63.869C51.3224 65.2747 50.9063 66.3142 50.5251 67.6436C50.5008 67.727 50.7046 67.6998 50.6858 67.7725C50.4272 68.7306 50.0347 69.6113 49.7149 70.5503C49.6882 70.6275 49.8958 70.5843 49.8582 70.7106C49.7813 70.972 49.6449 71.273 49.4825 71.5061C49.4044 71.6177 49.3369 71.3936 49.2613 71.5066C49.0847 71.77 48.9396 72.0608 48.8305 72.3608C48.7837 72.4898 49.0347 72.3795 48.9608 72.5416C48.4673 73.6301 47.9264 74.7088 47.0938 75.6255C47.0364 75.6886 46.6865 75.5586 46.6543 75.7431C46.7336 75.8081 46.8354 75.8709 46.9246 75.9334C46.0427 77.4534 44.8918 78.7825 43.6879 80.0767C43.6368 80.1317 43.868 80.1665 43.7692 80.2738C43.203 80.8874 42.6509 81.5145 41.8834 81.9476C41.8071 81.9908 41.6113 81.7085 41.4603 81.9112C41.4347 81.9473 41.1825 82.2263 41.1538 82.3466C41.1508 82.3638 41.307 82.4407 41.2161 82.5234C40.6929 82.9959 40.0683 83.4308 39.4338 83.7542C39.3299 83.807 39.3336 83.5975 39.2592 83.6336C38.7399 83.8847 38.2805 84.3299 37.725 84.474C37.3599 84.5646 37.327 84.2444 37.021 84.0847C36.9776 84.0626 36.7821 84.1618 36.693 84.0185C36.4686 83.6593 36.3376 83.2041 36.0872 82.8271C36.0334 82.7464 35.8479 82.9631 35.8767 82.6823C35.879 82.6636 36.0115 82.5039 36.0146 82.411C36.0169 82.347 35.8829 82.2256 35.9072 82.1318C35.9309 82.0383 36.0658 82.1273 36.1215 82.0002C36.1739 81.8734 36.0353 81.7297 36.2094 81.6006ZM39.5313 24.9496C39.5566 25.2007 39.9933 24.7908 39.7426 24.7481C39.73 24.7465 39.5297 24.937 39.5313 24.9496ZM19.8187 12.9232C19.9582 13.258 20.2567 12.9574 20.1643 12.7038C20.0708 12.4501 19.7755 12.8215 19.8187 12.9232ZM17.3092 12.2363C17.5214 12.5266 17.8372 11.7379 17.4814 11.7996C17.4608 11.803 17.2967 12.2195 17.3092 12.2363ZM37.7355 83.5727C37.729 83.5676 37.5891 83.6434 37.5899 83.6519C37.6148 83.859 37.8971 83.7058 37.7355 83.5727ZM14.7927 11.6744C14.8481 11.8097 15.137 11.7562 15.0684 11.5875C15.0126 11.4514 14.7232 11.5058 14.7927 11.6744ZM45.407 33.0332C45.4012 33.0405 45.4538 33.1375 45.495 33.1086C45.6279 33.0149 45.5061 32.91 45.407 33.0332ZM10.5659 10.6263C11.1873 10.7916 11.4098 11.5618 10.7508 11.3345C10.6311 11.2936 11.0629 11.1741 10.9203 11.0782C10.6575 10.9027 10.3773 11.2929 10.1361 11.0024C10.0917 10.949 10.5302 10.6149 10.5673 10.6256C10.5668 10.6258 10.5664 10.626 10.5659 10.6263ZM39.1123 25.5436C39.1096 25.5519 39.2138 25.6633 39.2219 25.6602C39.4137 25.5817 39.2029 25.3563 39.1123 25.5436ZM48.0688 38.8614C48.0569 38.8755 48.1763 39.2041 48.1946 39.209C48.5525 39.2613 48.3097 38.5902 48.0688 38.8614ZM30.8129 19.5903C30.5709 19.6623 30.3937 19.5769 30.4098 19.3038C30.5419 19.4017 30.6803 19.4916 30.8129 19.5903Z" fill="white"/>
<path d="M57.6934 84.1443C57.4077 84.2105 57.0329 84.2912 56.7477 84.3388C56.6584 84.3539 56.7031 84.3297 56.6414 84.3385C56.5206 84.3552 56.4085 84.3849 56.289 84.3986C56.2495 84.4029 56.2977 84.364 56.2562 84.3686C56.0287 84.3924 55.8141 84.4352 55.5837 84.4635C54.4489 84.5969 53.3328 84.7081 52.1828 84.803C51.8037 84.8356 51.3404 84.7956 50.9502 84.8739C50.9046 84.8833 50.9346 84.9702 50.9261 84.9785C50.7933 85.108 50.8331 84.9207 50.7433 84.905C50.387 84.8439 49.9935 84.8648 49.6545 84.9354C49.5103 84.9657 49.6616 85.1566 49.5125 85.0561C49.5021 85.0493 49.5355 84.9359 49.4954 84.9277C49.4046 84.9091 49.2344 84.9435 49.1644 84.9406C49.0294 84.9341 49.0072 84.9369 48.88 84.9462C48.706 84.9582 48.4974 84.9151 48.3117 84.9568C48.272 84.9663 48.3285 85.0867 48.2657 85.1136C48.2028 85.1406 48.0344 85.1454 47.9768 85.1201C47.9192 85.0948 47.9402 84.9918 47.9295 84.9695C47.841 84.7794 47.6547 85.0659 47.6299 85.0759C47.1772 85.2317 46.781 85.1024 46.3525 85.1323C46.0273 85.1567 45.6813 85.2407 45.3716 85.2557C45.0026 85.273 44.6875 85.2104 44.3297 85.2485C44.2919 85.2524 44.3419 85.4354 44.2958 85.4409C43.806 85.4991 43.3183 85.5163 42.8257 85.4143C42.7763 85.4038 42.8342 85.2261 42.7845 85.205C42.4804 85.0816 41.9951 84.7441 41.8409 85.5377C41.6369 85.5198 41.3895 85.5035 41.2029 85.3524C41.0826 85.2549 41.1903 85.0488 41.049 85.1412C41.0171 85.1619 41.0647 85.3355 41.0165 85.3534C40.8136 85.4291 40.5879 85.3832 40.388 85.4865C40.3474 85.5079 40.3635 85.6679 40.3527 85.6975C40.2617 85.9382 40.0865 85.5596 40.05 85.5326C39.7722 85.3353 39.5766 85.4276 39.3237 85.4351C39.2649 85.4367 39.341 85.6543 39.2848 85.664C38.993 85.7114 38.6892 85.7088 38.3995 85.6229C38.3351 85.6032 38.3879 85.4083 38.3568 85.389C38.2197 85.3057 38.201 85.6708 38.0697 85.5983C38.042 85.5834 38.0523 85.4174 38.0468 85.3994C37.9606 85.1175 37.9055 85.5247 37.8858 85.5347C37.6372 85.669 37.4629 85.251 37.2209 85.3206C37.192 85.3295 37.2642 85.5387 37.1825 85.5508C36.6381 85.6331 36.0586 85.5993 35.5126 85.4461C35.4277 85.4226 35.4828 85.2578 35.4769 85.238C35.3811 84.9277 35.3381 85.3494 35.3112 85.3663C35.0983 85.4883 34.8855 85.1416 34.7539 85.6493C34.5703 85.6212 34.3873 85.611 34.2048 85.6094L33.2029 85.6524L33.3449 84.6384C33.4497 84.0962 33.4759 83.5435 33.6834 83.0198C33.7513 82.8483 33.8387 82.6798 33.9546 82.5158C33.9616 82.5052 34.1654 82.5573 34.1784 82.5359C34.3367 82.2792 34.0069 82.2828 33.642 82.0412C33.5505 81.9804 34.0465 81.9138 34.0831 81.9068C34.2181 81.8815 34.5183 81.975 34.5455 81.9638C34.7592 81.8692 33.7398 81.7342 33.7658 81.5666C33.7683 81.5616 33.9518 81.6122 33.9726 81.6009C34.0377 81.5661 33.9702 81.5115 34.0412 81.4785C34.2053 81.4034 34.7033 81.4438 34.4397 81.2504C34.4054 81.2258 33.826 81.1669 33.8769 81.0214C33.8976 80.9635 33.9297 80.6981 33.9786 80.6298C34.0274 80.5615 34.2038 80.6405 34.2127 80.6364C34.4879 80.4745 34.5771 80.5655 34.9531 80.5208C35.3273 80.4758 34.4666 80.3726 34.3775 80.3174C34.2886 80.2621 34.5122 80.1467 34.5874 80.1215C34.6626 80.0963 34.7724 80.1588 34.8168 80.133C35.1066 79.9607 34.4074 79.9754 34.283 79.885C33.9891 79.6719 34.6411 79.6406 34.7258 79.4995C34.7488 79.4614 34.6003 79.4727 34.5926 79.4344C34.5642 79.2831 34.7734 79.2267 34.6198 79.0361C34.5946 79.0049 34.2402 78.8156 34.5296 78.7724C34.5712 78.7663 34.7213 78.8245 34.7658 78.7687C34.8324 78.6853 34.8919 78.5258 34.8556 78.4197C34.8288 78.3414 34.5609 78.3856 34.6547 78.3064C34.6964 78.2713 34.8334 78.3692 34.8993 78.3012C34.9651 78.2337 34.9887 78.0389 34.9952 77.9643C35.0015 77.8899 34.8034 77.9009 34.7914 77.893C34.7231 77.8457 34.6538 77.6905 34.6561 77.678C34.7373 77.0457 35.1471 76.5137 35.142 75.8851C35.142 75.8359 34.9429 75.8383 34.9409 75.8305C34.8872 75.6536 35.3808 75.862 35.5707 75.7732C35.1759 75.7299 35.2578 75.6729 35.2336 75.5504C35.2217 75.4913 35.0658 75.4987 35.0511 75.4912C34.8358 75.3734 35.1415 75.361 35.2041 75.3553C35.4349 75.3344 35.1826 75.2346 35.3366 75.2199C35.4892 75.205 35.6936 75.3242 35.7076 75.2124C35.5743 75.1601 35.1995 75.1874 35.1549 75.0941C34.988 74.7422 35.3699 74.1913 35.4389 73.9394C35.5094 73.6883 35.4988 73.6021 35.5708 73.4605C35.7005 73.2046 35.4307 73.2644 35.3447 73.0801C35.2595 72.8954 35.8613 73.0708 35.9978 73.067C36.1337 73.0635 36.0014 73.0169 36.0784 72.9985C36.1552 72.9802 36.2359 73.0575 36.2729 72.9926C36.3094 72.9275 36.1035 72.7028 35.9715 72.6576C35.691 72.5617 35.3738 72.6004 35.5119 72.4344C35.52 72.4249 35.6729 72.4832 35.6956 72.4455C35.8705 72.1451 35.9318 71.8146 36.0863 71.5115C36.1077 71.4698 36.2706 71.5349 36.2848 71.5109C36.432 71.2611 36.1336 71.3128 35.8462 71.1197C36.256 71.2158 36.5223 71.174 36.5522 70.9719C36.5708 70.8505 36.3894 70.8441 36.2764 70.7465C36.2425 70.7172 36.3771 70.6499 36.2965 70.6216C36.0339 70.529 35.7173 70.5634 35.8748 70.3744C35.8821 70.3662 36.0241 70.4176 36.0384 70.3875C36.1307 70.1928 35.8566 70.1259 35.8646 69.9015C35.8714 69.7256 36.092 69.4447 36.1519 69.2524C36.5736 69.321 36.5035 69.12 36.2312 69.0012C36.2651 68.8757 36.2735 68.7358 36.3336 68.6186C36.354 68.5782 36.4661 68.6239 36.4797 68.6205C36.6906 68.5686 36.4297 68.472 36.4243 68.4429C36.3755 68.1296 36.6121 67.9166 36.4731 67.6035C36.4679 67.5923 36.2107 67.5362 36.4147 67.4894C36.4284 67.4864 36.5303 67.5984 36.5626 67.466C36.596 67.3338 36.7719 67.1018 36.6884 66.8984C36.6678 66.8491 36.4915 66.7055 36.6616 66.6378C36.6845 66.6288 36.7514 66.6527 36.7928 66.641C36.924 66.6028 36.6878 66.535 36.9032 66.4994C37.1188 66.4639 37.2847 66.3469 37.1739 66.1377C37.1706 66.1311 36.9941 66.0586 37.0066 66.0001C37.0263 65.9066 37.0841 65.7784 37.0978 65.6797C37.1044 65.6324 36.991 65.646 36.9902 65.6375C36.9825 65.3119 37.1159 65.1013 37.206 64.7675C37.2218 64.7062 37.1205 64.5076 37.2425 64.4029C37.3734 64.2875 37.8146 64.4941 37.7361 64.1708C37.7003 64.0397 37.1809 63.8014 37.4919 63.6232C37.4899 63.1853 37.6696 62.808 37.6479 62.3658C37.6469 62.3459 37.5389 62.267 37.5485 62.2221C37.5626 62.1554 37.6216 62.1266 37.6324 62.079C37.6786 61.88 37.6651 61.6894 37.7032 61.4965C37.7172 61.4232 37.7601 61.4561 37.7755 61.3685C37.7904 61.2809 37.7416 61.2134 37.7879 61.0987C37.8234 61.012 37.9461 60.9388 37.9708 60.8204C37.8672 60.7999 37.8807 60.7181 37.877 60.5684C37.8764 60.5396 37.8382 60.5645 37.8363 60.5507C37.8284 60.4943 37.8637 60.4486 37.8543 60.3948C37.8522 60.3817 37.8213 60.3764 37.818 60.3655C37.7899 60.2726 37.8836 60.1409 37.8975 60.118C37.9543 60.0306 37.9259 59.9813 37.9533 59.9118C37.9795 59.8422 37.9817 59.9526 38.0031 59.8699C38.0461 59.6983 38.0716 59.4733 38.097 59.2962C38.1068 59.2255 38.0762 59.2701 38.0771 59.2599C38.0947 59.1133 38.1359 58.9686 38.1125 58.8822C38.2191 58.795 38.1175 58.793 38.1703 58.5877C38.1745 58.5715 38.2083 58.5553 38.206 58.6194C38.2042 58.6837 38.1808 58.778 38.18 58.8674C38.1789 58.8884 38.2112 59.0148 38.2139 59.0318C38.2285 59.1639 38.146 59.1697 38.1402 59.1756C38.0805 59.2444 38.1197 59.3988 38.1221 59.4383C38.1246 59.6175 38.0944 59.7648 38.0976 59.9148C38.0999 60.013 38.1842 60.0354 38.1775 60.1112C38.158 60.3636 38.004 60.4292 38.1119 60.6863C38.1357 60.7415 38.26 60.7092 38.1549 60.878C38.1493 60.8888 38.0468 61.0104 38.1007 61.0979C38.1076 61.1089 38.1465 61.1146 38.1491 61.1281C38.166 61.2187 38.131 61.2721 38.1414 61.3695C38.152 61.467 38.172 61.5854 38.1518 61.6918C38.1401 61.756 38.049 61.8267 38.0249 61.8546C37.9555 61.9332 38.052 62.0435 37.9698 62.0862C37.885 62.129 37.7784 62.0038 37.7076 62.1391C37.8375 62.1643 37.9706 62.1971 38.1022 62.2259C38.081 62.5428 38.0143 62.8476 37.9987 63.1665C37.9971 63.2061 38.0837 63.1786 38.0846 63.2214C38.0893 63.4023 38.0174 63.5486 38.0315 63.7376C38.0428 63.8839 38.1348 64.0565 38.1552 64.2108C37.9435 64.2708 37.9984 64.5036 37.9691 64.6621C37.9586 64.7176 37.8996 64.7047 37.8771 64.7419C37.7931 64.8823 37.9975 64.8417 38.0264 64.8881C38.1529 65.0876 37.6919 65.0326 37.6814 65.2434C37.6799 65.2544 37.9235 65.4292 37.9393 65.4506C38.0364 65.5858 37.8483 65.4566 37.8235 65.5281C37.7781 65.6588 37.7052 65.7432 37.7709 65.9146C37.7898 65.9646 37.9533 66.1025 37.8136 66.1725C37.7952 66.1817 37.7041 66.1611 37.6979 66.1699C37.592 66.3288 37.8831 66.3779 37.9776 66.4925C38.0728 66.6071 37.8569 66.7287 37.7931 66.7505C37.6301 66.8079 37.7316 66.678 37.7166 66.6712C37.5402 66.5919 37.5609 66.7078 37.5369 66.7904C37.2364 66.7569 37.2391 66.8778 37.5132 66.8761C37.543 66.8756 37.5215 66.8053 37.5369 66.7904C37.8227 66.9097 37.8569 67.0473 37.5607 67.1483C37.4213 67.1955 37.2726 67.108 37.306 67.3211C37.3213 67.4179 37.5424 67.4152 37.5943 67.5064C37.7149 67.7151 37.4857 67.9274 37.4989 68.1256C37.5045 68.1977 37.6365 68.1485 37.645 68.1984C37.6686 68.3312 37.563 68.4289 37.6009 68.5644C37.6046 68.5768 37.7421 68.569 37.7407 68.6092C37.7333 68.9138 37.6227 69.1632 37.5919 69.4777C37.577 69.6297 37.634 69.9142 37.6042 70.0694C37.5544 70.3387 37.3 70.6406 37.33 70.8817C37.3497 71.039 37.509 71.0295 37.6097 71.111C37.8067 71.2687 37.4142 71.4346 37.3516 71.4554C37.3495 71.4561 37.3253 71.3196 37.2367 71.3769C37.0623 71.3914 37.3509 71.4538 37.3516 71.4554C37.3122 71.4694 37.2487 71.7249 37.2741 71.7815C37.2881 71.8123 37.4431 71.8199 37.4476 71.8355C37.5516 72.2061 37.5628 72.5631 37.4538 72.9062C37.4499 72.9119 37.2716 72.8752 37.2647 72.889C37.1632 73.0817 37.3699 73.2467 37.4869 73.4363C37.6034 73.6258 37.5479 73.7536 37.219 73.805C37.2458 73.9386 37.0848 74.0999 36.9859 74.1918C36.887 74.2837 37.2525 74.3544 37.2589 74.3648C37.4619 74.6894 37.234 74.8243 37.1669 75.1187C37.1347 75.2585 37.1581 75.5494 37.1829 75.7099C37.2032 75.8369 37.105 75.8966 37.15 76.0176C37.156 76.034 37.3291 76.0448 37.3352 76.0505C37.527 76.2072 37.1139 76.0829 37.036 76.0973C36.7525 76.1493 36.5986 76.1848 36.7079 76.3646C36.7325 76.406 37.3303 76.607 37.3592 76.68C37.3951 76.7747 37.179 76.708 37.2219 76.808C37.2254 76.8165 37.3614 76.8356 37.3492 76.8914C37.2943 77.1506 37.1815 77.4251 37.1632 77.7004C37.1602 77.7379 37.385 77.7236 37.3845 77.7784C37.3818 78.0355 37.342 78.3116 37.2084 78.5421C37.1748 78.5987 37.0235 78.5369 36.9757 78.543C36.6855 78.581 37.0783 78.7577 37.084 78.7778C37.2257 79.2588 36.8096 79.5468 36.9272 80.0329C36.9341 80.0595 37.3547 80.3199 36.9612 80.3473C36.9351 80.3493 36.5321 80.3743 36.7897 80.4902C36.8059 80.4975 37.0146 80.4754 36.9818 80.5645C36.9489 80.6537 37.0642 80.8228 36.8246 80.9156C36.7492 80.9451 36.3432 80.9799 36.6397 81.1474C36.6602 81.1585 37.344 81.4517 36.8454 81.4429C36.7633 81.4413 36.2468 81.3509 36.4922 81.5343C36.5399 81.5694 36.6625 81.5376 36.7246 81.6205C36.8205 81.7477 36.6607 81.8723 36.8728 82.043C36.9104 82.0729 37.2491 82.2273 36.9696 82.267C36.9258 82.2732 36.7556 82.2227 36.73 82.2623C36.6074 82.4504 36.6926 82.6799 36.5417 82.8669C36.4885 82.9331 36.2128 82.853 36.1261 82.9173C36.0393 82.9816 35.9437 83.1232 36.0602 83.2221C36.1768 83.3211 36.6384 83.303 36.6562 83.4273C36.6585 83.4432 36.6604 83.4591 36.662 83.4749C36.7132 83.9954 36.3858 84.4537 36.2674 84.9478C36.2493 85.0233 36.4195 84.9844 36.4041 85.0974C36.4037 85.1001 36.4033 85.1028 36.403 85.1056L34.1108 82.5173C34.532 82.4946 35.2463 82.3402 35.6191 82.6745C35.9197 82.943 35.5581 83.1545 35.7849 83.2619C35.8942 83.3127 35.9951 82.7937 36.0207 82.7773C36.2699 82.61 36.4535 82.8373 36.6802 82.7661C36.727 82.7514 36.6744 82.5437 36.7143 82.5336C36.8506 82.4974 36.9978 82.5898 37.1286 82.5729C37.1872 82.5649 37.1716 82.4072 37.2262 82.4196C37.3567 82.4473 37.4734 82.514 37.6043 82.6611C37.6162 82.6744 37.5445 82.8694 37.6406 82.8766C37.7963 82.8878 37.9934 83.0312 38.1676 82.8831C38.2192 82.8385 38.2105 82.4846 38.3319 82.7296C38.3574 82.7809 38.3398 83.2047 38.4614 82.8388C38.4818 82.7774 38.69 82.2882 38.8091 82.6061C38.8405 82.6897 38.9246 83.0337 38.9867 82.9799C38.9951 82.9714 38.9548 82.7836 39.007 82.7658C39.1914 82.7064 39.3872 82.7286 39.5768 82.6733C39.6274 82.6583 39.5455 82.4656 39.6211 82.4496C39.8291 82.4056 40.0921 82.4605 40.2988 82.5241C40.375 82.5479 40.3275 82.7023 40.3335 82.7194C40.4302 82.996 40.4712 82.6258 40.4998 82.6051C40.6783 82.4805 40.8225 82.6572 40.9893 82.6157C41.0353 82.6049 40.9971 82.4301 41.0059 82.4148C41.0971 82.2665 41.0352 82.5763 41.0969 82.6123C41.2697 82.7141 41.4587 82.7045 41.6298 82.6877C41.6927 82.6813 41.6157 82.4813 41.6722 82.4781C42.0065 82.4559 42.3557 82.4902 42.6861 82.6084C42.7484 82.631 42.7141 82.7763 42.7279 82.8103C42.8235 83.0471 42.9435 82.7322 42.9725 82.7037C43.104 82.5714 43.1606 82.702 43.2798 82.6829C43.8617 82.5899 44.5875 82.7123 45.1418 82.7884C45.8643 82.8897 46.4269 83.0351 47.1131 83.0434C47.1567 83.0442 47.1079 82.8849 47.1454 82.8839C47.6306 82.8804 48.1111 82.9733 48.5972 82.9698C48.6371 82.97 48.5753 82.8317 48.6393 82.8281C48.7704 82.8198 48.9375 82.8433 49.0719 82.8965C49.1374 82.922 49.0537 83.0244 49.1196 83.0473C49.273 83.1005 49.4364 83.1211 49.5921 83.114C49.6584 83.1109 49.5542 82.9771 49.6406 82.9836C50.2294 83.0238 50.808 83.0733 51.4075 83.2638C51.4487 83.2771 51.4908 83.4872 51.5763 83.4534C51.5811 83.397 51.5787 83.3303 51.5797 83.2698C52.4366 83.3218 53.2879 83.4731 54.1484 83.5661C54.1847 83.5704 54.1199 83.4933 54.1902 83.5019C54.5969 83.5498 54.9916 83.59 55.4091 83.6895C55.4506 83.6991 55.432 83.7829 55.5531 83.7807C55.5745 83.7803 55.7572 83.7864 55.8041 83.7753C55.8105 83.7736 55.776 83.7346 55.835 83.7406C56.1779 83.776 56.5377 83.8301 56.8805 83.8815C56.9359 83.8897 56.8776 83.9038 56.917 83.9094C57.1964 83.9448 57.4997 83.9656 57.7665 83.9983C57.9451 84.0179 57.8793 84.0211 57.9742 84.0308C57.9876 84.032 58.0979 84.0347 58.1036 84.0357C58.1183 84.0378 58.0651 84.0452 58.0871 84.0477C58.0907 84.0479 58.1792 84.0361 58.1792 84.0361C58.1792 84.0361 58.1715 84.0371 58.1517 84.0402C58.1456 84.041 58.0391 84.0576 58.013 84.0634C57.9947 84.0675 58.0277 84.0643 57.9905 84.0726C57.9533 84.0814 57.9123 84.0857 57.8507 84.0998C57.7891 84.1146 57.8164 84.116 57.6934 84.1443ZM36.5386 74.6052C36.3473 74.675 37.0007 74.7894 36.8565 74.6603C36.8487 74.6539 36.548 74.6015 36.5386 74.6052ZM37.8152 62.8154C37.6838 62.9249 37.8497 63.0388 37.9496 62.9627C38.0466 62.8862 37.8536 62.7818 37.8152 62.8154ZM37.8849 61.4832C37.7954 61.6209 38.0875 61.6894 38.0403 61.5201C38.0376 61.5102 37.8899 61.4752 37.8849 61.4832ZM57.5354 84.0249C57.5368 84.0255 57.6161 84.0271 57.6179 84.0267C57.6598 84.0179 57.5012 84.0115 57.5354 84.0249ZM37.9887 60.1666C37.9565 60.2089 37.9689 60.3468 38.0098 60.2944C38.0415 60.252 38.0271 60.1136 37.9887 60.1666ZM35.08 79.5495C35.069 79.5494 35.0507 79.604 35.1119 79.6122C35.3091 79.6384 35.2653 79.5518 35.08 79.5495ZM38.2805 57.9463C38.2433 58.2753 38.1613 58.4656 38.2361 58.1127C38.2482 58.0485 38.2189 58.2523 38.2362 58.1709C38.263 58.0213 38.2736 57.9209 38.3037 57.7687C38.3069 57.7407 38.2811 57.9273 38.2804 57.9469C38.2804 57.9467 38.2805 57.9465 38.2805 57.9463ZM35.7455 74.541C35.7366 74.5416 35.7165 74.6181 35.7248 74.6212C35.9268 74.6952 35.9664 74.5411 35.7455 74.541ZM34.1248 82.7545C34.1033 82.7556 34.0563 82.9329 34.0746 82.9417C34.4439 83.0944 34.5401 82.7361 34.1248 82.7545ZM36.1637 69.251C36.0126 69.1412 36.014 69.0376 36.2309 69.0016C36.2053 69.0839 36.1888 69.1681 36.1637 69.251Z" fill="white"/>
</g>
<defs>
<filter id="filter0_d_2006_132" x="0.133057" y="0.471313" width="68.0461" height="95.3059" filterUnits="userSpaceOnUse" color-interpolation-filters="sRGB">
<feFlood flood-opacity="0" result="BackgroundImageFix"/>
<feColorMatrix in="SourceAlpha" type="matrix" values="0 0 0 0 0 0 0 0 0 0 0 0 0 0 0 0 0 0 127 0" result="hardAlpha"/>
<feOffset/>
<feGaussianBlur stdDeviation="5"/>
<feComposite in2="hardAlpha" operator="out"/>
<feColorMatrix type="matrix" values="0 0 0 0 1 0 0 0 0 0.911111 0 0 0 0 0 0 0 0 1 0"/>
<feBlend mode="normal" in2="BackgroundImageFix" result="effect1_dropShadow_2006_132"/>
<feBlend mode="normal" in="SourceGraphic" in2="effect1_dropShadow_2006_132" result="shape"/>
</filter>
</defs>
</svg>
